<svg id="svg4198" xmlns:rdf="http://www.w3.org/1999/02/22-rdf-syntax-ns#" xmlns="http://www.w3.org/2000/svg" height="100%" width="100%" version="1.1" xmlns:cc="http://creativecommons.org/ns#" xmlns:dc="http://purl.org/dc/elements/1.1/" viewBox="0 0 24 23.999999">
 <path id="path4200" stroke-linejoin="round" d="m21.744 0.10147c0.000496 1.5282 0.000048 3.0564 0 4.5845-2.636-0.0567-4.662 2.1071-5.874 4.2142-0.436 0.7581-0.434 0.5889 0.669 0.5889h2.7414v4.6376h-5.6387c-1.0952 3.7869-3.5533 7.4696-7.3131 9.0056-1.2885 0.52554-2.6835 0.76847-4.0727 0.76649v-4.8033c1.9665 0.20831 3.8268-0.94269 4.8488-2.5717 2.2733-3.525 3.047-7.7897 5.341-11.308 1.521-2.5159 4.064-4.464 7.003-4.9213 0.757-0.13501 1.527-0.19334 2.294-0.19334z" stroke-opacity=".49758" stroke="#1a1a1a" stroke-width=".20245" fill="#fafafa"/>
</svg>
