<svg id="svg3387" xmlns:rdf="http://www.w3.org/1999/02/22-rdf-syntax-ns#" style="enable-background:new" xmlns="http://www.w3.org/2000/svg" viewBox="0 0 128 128" version="1.1" xmlns:cc="http://creativecommons.org/ns#" xmlns:dc="http://purl.org/dc/elements/1.1/">
 <g id="g4234" transform="matrix(1.0117 0 0 1.0117 -.74999 .22524)">
  <path id="path3396" style="color-rendering:auto;color:#000000;isolation:auto;mix-blend-mode:normal;shape-rendering:auto;solid-color:#000000;image-rendering:auto;enable-background:accumulate" d="m127.26 63.029a63.26 63.009 0 0 1 -126.52 0 63.26 63.009 0 1 1 126.52 0z" transform="translate(7.6294e-6,3.8147e-6)" fill="#37474F"/>
  <g id="g3339" fill="#efefef">
   <path id="rect4238" d="m45.89 47.596-4.944 4.904-1.6077 1.5923-2.3922 2.3668c-7.9151 7.8325-7.9151 20.444-0.000001 28.277l0.05701 0.05679-7.9999 7.9181c-1.583 1.5665-1.583 4.0893 0 5.6558s4.1318 1.5665 5.7148-0.000001l8.0044-7.9204c7.9193 7.774 20.617 7.7584 28.513-0.05452l2.3945-2.3691 1.6054-1.59 4.9463-4.904-14.287-14.14-5.7148-5.6535z" transform="translate(7.6294e-6,3.8147e-6)"/>
   <rect id="rect4242" transform="matrix(0.71081,-0.70339,0.71081,0.70339,7.6294e-6,3.8147e-6)" ry="4.0199" height="60.3" width="8.04" y="60.042" x="2.6385"/>
   <path id="path4244" d="m81.12 28.354c-1.583-1.5665-4.1292-1.5664-5.7122-0.000002l-16.909 16.755 5.721 5.65 16.902-16.751c1.583-1.5665 1.5815-4.0881-0.0016-5.6546z" transform="translate(7.6294e-6,3.8147e-6)"/>
   <path id="path4246" d="m99.481 46.532c-1.583-1.5665-4.1321-1.5664-5.7152 0.000007l-16.891 16.74 5.721 5.65 16.887-16.736c1.583-1.5665 1.5815-4.0881-0.0016-5.6546z" transform="translate(7.6294e-6,3.8147e-6)"/>
  </g>
  <path id="path3396-8" opacity=".25" style="color-rendering:auto;color:#000000;isolation:auto;mix-blend-mode:normal;shape-rendering:auto;solid-color:#000000;image-rendering:auto;enable-background:accumulate" d="m3.1632 46.235h121.67zm121.67 0h-0.14085c1.3437 5.1196 2.0289 10.388 2.0394 15.68 0 34.508-28.086 62.482-62.731 62.482-34.646 0-62.731-27.974-62.731-62.482 0.026169-5.2936 0.72765-10.562 2.0876-15.68h-0.19294c-1.5649 5.5-2.3672 11.185-2.3886 16.9 0.02134 34.765 28.32 62.935 63.222 62.935 34.901 0 63.2-28.171 63.222-62.936-0.0227-5.715-0.82625-11.4-2.3886-16.899z"/>
 </g>
</svg>
